HIERARCHY
ROOT pelvis
{
  OFFSET 0 100 0
  CHANNELS 6 Xposition Yposition Zposition Zrotation Xrotation Yrotation
  JOINT pelvis_right_femur
  {
    OFFSET -10.78128 -3.44521 -0.5502486
    CHANNELS 3 Zrotation Xrotation Yrotation
    JOINT right_femur_tibia
    {
      OFFSET -0.8047443 -44.0398 -0.1307829
      CHANNELS 3 Zrotation Xrotation Yrotation
      JOINT right_tibia_foot
      {
        OFFSET 3.006224 -47.83518 -5
        CHANNELS 3 Zrotation Xrotation Yrotation
        End Site
        {
          OFFSET 0 -5 15
        }
      }
    }
  }
  JOINT pelvis_left_femur
  {
    OFFSET 10.78128 -3.44521 -0.5502486
    CHANNELS 3 Zrotation Xrotation Yrotation
    JOINT left_femur_tibia
    {
      OFFSET 0.8047443 -44.0398 -0.1307829
      CHANNELS 3 Zrotation Xrotation Yrotation
      JOINT left_tibia_foot
      {
        OFFSET -4.370144 -48.10324 -4.275266
        CHANNELS 3 Zrotation Xrotation Yrotation
        End Site
        {
          OFFSET 0 -5 15
        }
      }
    }
  }
  JOINT pelvis_spine1
  {
    OFFSET 0 6.468898 -3.129235
    CHANNELS 3 Zrotation Xrotation Yrotation
    JOINT spine1
    {
      OFFSET 0 23.15396 4.99043
      CHANNELS 3 Zrotation Xrotation Yrotation
      JOINT spine2
      {
        OFFSET 0 20.79997 -5.064912
        CHANNELS 3 Zrotation Xrotation Yrotation
        JOINT neck
        {
          OFFSET 0 14.38658 9.616178
          CHANNELS 3 Zrotation Xrotation Yrotation
          End Site
          {
            OFFSET 0 20 0
          }
        }
      }
      JOINT right_manubrium
      {
        OFFSET -5.722621 16.35077 3.967754
        CHANNELS 3 Zrotation Xrotation Yrotation
        JOINT right_clavicle
        {
          OFFSET -13.16364 1.694482 -4.693211
          CHANNELS 3 Zrotation Xrotation Yrotation
          JOINT right_humerus
          {
            OFFSET -28.5034 -0.3100689 -2.792744
            CHANNELS 3 Zrotation Xrotation Yrotation
            JOINT right_radius
            {
              OFFSET -25.15693 0.02248979 -1.271978
              CHANNELS 3 Zrotation Xrotation Yrotation
              End Site
              {
                OFFSET -15 0 0
              }
            }
          }
        }
      }
      JOINT left_manubrium
      {
        OFFSET 5.722621 16.35077 3.967754
        CHANNELS 3 Zrotation Xrotation Yrotation
        JOINT left_clavicle
        {
          OFFSET 13.16364 1.694482 -4.693211
          CHANNELS 3 Zrotation Xrotation Yrotation
          JOINT left_humerus
          {
            OFFSET 29.39168 -1.063119 -2.237045
            CHANNELS 3 Zrotation Xrotation Yrotation
            JOINT left_radius
            {
              OFFSET 24.59957 -0.9528479 0.9047498
              CHANNELS 3 Zrotation Xrotation Yrotation
              End Site
              {
                OFFSET 15 -0 -0
              }
            }
          }
        }
      }
    }
  }
}
MOTION
Frames: 7
Frame Time: 0.0416666666667
0 103.5113 0 1.092098 -1.393871 0.003157426 2.973977 -16.419 7.856767 -0 35.8827 -0 -5.721442 -15.94274 -3.790488 -6.840788 12.20552 -23.0422 -0 5.282321 -0 5.376267 -18.56673 24.81048 -2.023572 -2.899738 6.214942 2.207471 9.675176 -7.066018 1.539502 20.93492 6.308572 3.276308 -25.80798 9.173235 5.505067 -19.81312 10.78025 83.37536 35.87872 -15.92288 -0 0 17.14754 -7.818968 9.34496 3.879534 7.621406 -21.28127 1.218147 -95.15931 22.89041 23.76935 0 0 -12.21213 13.95579 16.32624 -1.976213
0.2103082 103.4543 1.627331 0.2515811 -0.9284041 -0.1207165 4.047432 -19.24219 8.407002 -0 36.5911 -0 -5.947126 -14.52709 -4.508119 -6.000316 12.33265 -22.59442 -0 5.824072 -0 2.823879 -20.28091 23.58561 -1.960251 -2.748377 5.965719 2.361607 9.7054 -7.257702 1.473407 20.77879 6.41818 3.350444 -25.87112 9.093862 5.510961 -19.52022 10.86692 83.79886 35.64376 -16.57712 -0 0 16.51928 -8.204239 9.538051 4.180107 7.586397 -21.36573 0.9994803 -94.66939 22.67638 23.1322 0 0 -12.85849 13.48211 15.94919 -1.495798
0.4394344 103.236 3.52987 -0.3229768 0.20187 -0.2955506 5.475898 -24.36548 8.777518 -0 33.15701 -0 -5.650389 -13.03585 -4.272065 -5.834763 12.42983 -21.74534 -0 6.23864 -0 4.877873 -20.93669 24.13128 -1.727361 -2.67121 5.50445 2.688569 9.676936 -7.657832 1.507834 20.41617 6.585147 3.44663 -26.37439 9.294296 5.514792 -19.10698 10.84476 84.7549 35.13982 -18.15561 -0 0 15.66496 -7.663398 9.574091 3.799203 7.863492 -21.61796 0.9140765 -94.3148 22.46273 22.213 0 0 -13.81618 13.49664 15.83097 -1.502443
0.669665 102.8522 5.734038 -0.8187078 1.139839 -0.4653978 6.663869 -28.4911 9.019167 -0 30.08093 -0 -5.539936 -11.23274 -4.038124 -5.648191 12.65299 -20.97891 -0 6.666005 -0 5.834531 -21.75127 24.18854 -1.543412 -2.539589 5.070695 2.988487 9.680491 -8.0196 1.495305 20.09996 6.755055 3.543862 -26.73647 9.393791 5.520869 -18.67583 10.88631 85.59854 34.69959 -19.50893 -0 0 14.74413 -7.510833 9.701653 3.716841 8.019904 -21.83008 0.7390836 -93.80326 22.14677 21.24884 0 0 -14.79925 13.33795 15.51172 -1.353681
0.8935745 102.2641 8.417386 -1.09017 2.102937 -0.5289264 7.402633 -32.06396 8.45538 -0 25.5558 -0 -5.694466 -8.613855 -3.253129 -5.691923 12.95211 -19.90123 -0 7.193972 -0 6.945765 -22.31445 23.84533 -1.365191 -2.434337 4.669135 3.265787 9.67596 -8.357285 1.496156 19.80333 6.907138 3.632447 -27.08909 9.506851 5.526564 -18.28669 10.9094 86.37672 34.26767 -20.77144 -0 0 13.92024 -7.286188 9.800819 3.575147 8.189321 -22.03577 0.5988147 -93.37529 21.8735 20.37589 0 0 -15.69733 13.23831 15.26625 -1.258392
1.098282 101.5274 11.67806 -1.252634 3.069767 -0.3861414 7.814597 -34.70352 7.556818 -0 21.06276 -0 -5.983943 -5.850219 -2.413103 -5.730809 13.39747 -18.7422 -0 8.100534 -0 7.140241 -22.71559 22.66254 -1.220223 -2.316082 4.303371 3.512183 9.684602 -8.659751 1.479497 19.54692 7.047362 3.714088 -27.34989 9.569149 5.535317 -17.91223 10.95333 87.05553 33.88799 -21.86136 -0 0 13.1205 -7.230068 9.937626 3.557885 8.301359 -22.21964 0.4308689 -92.90351 21.58003 19.52381 0 0 -16.56475 13.08064 14.9614 -1.1092
1.272697 100.7454 15.61961 -1.355195 3.981635 0.05115142 7.906781 -36.04149 6.309107 -0 16.94344 -0 -6.422893 -3.249965 -1.623945 -5.670575 13.96663 -17.43184 -0 9.84751 -0 6.065284 -22.6752 20.30595 -1.114365 -2.204507 4.001426 3.708116 9.698101 -8.90578 1.454547 19.34842 7.159809 3.781582 -27.51282 9.585733 5.545854 -17.58781 11.00158 87.59032 33.57685 -22.71881 -0 0 12.43277 -7.291911 10.08633 3.619452 8.36371 -22.37031 0.2632993 -92.46297 21.32826 18.78484 0 0 -17.3109 12.87595 14.67017 -0.9088954
